<?xml version="1.0" encoding="UTF-8"?>
<svg width="18px" height="18px" viewBox="0 0 18 18" version="1.1" xmlns="http://www.w3.org/2000/svg" xmlns:xlink="http://www.w3.org/1999/xlink">
    <!-- Generator: Sketch 52.3 (67297) - http://www.bohemiancoding.com/sketch -->
    <title>Combined Shape</title>
    <desc>Created with Sketch.</desc>
    <g id="Symbols" stroke="none" stroke-width="1" fill="none" fill-rule="evenodd" stroke-linecap="round">
        <g id="header" transform="translate(-1382.000000, -23.000000)" stroke="#FFFFFF">
            <g id="Combined-Shape">
                <path d="M1388.97861,34.1598833 L1392.60786,34.1860429 L1397.57586,36.5973367 C1397.57586,36.5973367 1398.54723,36.9978084 1398.54723,37.5694712 L1398.54723,39.0282501 C1398.54723,39.56529 1398.1129,40 1397.57586,40 L1383.97137,40 C1383.43509,40 1383,39.56529 1383,39.0282501 L1383,37.5694712 C1383,37.0305078 1383.97137,36.5973367 1383.97137,36.5973367 L1388.97861,34.1598833 Z M1394.57433,29.7504818 C1394.42391,32.1840881 1392.63275,34.1575944 1390.79966,34.1575944 L1390.71772,34.1575944 C1389.04889,34.1575944 1387.10001,32.1840881 1386.95728,29.7504818 L1386.87881,28.407882 C1386.7357,25.9735063 1388.45876,24 1390.72695,24 L1390.82312,24 C1393.0917,24 1394.80822,25.9735063 1394.65742,28.407882 L1394.57433,29.7504818 Z"></path>
            </g>
        </g>
    </g>
</svg>